<?xml version="1.0" encoding="UTF-8" standalone="no"?>
<!DOCTYPE svg PUBLIC "-//W3C//DTD SVG 1.1//EN"
 "http://www.w3.org/Graphics/SVG/1.1/DTD/svg11.dtd">
<!-- Generated by graphviz version 2.43.0 (0)
 -->
<!-- Title: site Pages: 1 -->
<svg width="1877pt" height="1210pt"
 viewBox="0.00 0.00 1876.90 1210.06" xmlns="http://www.w3.org/2000/svg" xmlns:xlink="http://www.w3.org/1999/xlink">
<g id="graph0" class="graph" transform="scale(1 1) rotate(0) translate(4 1206.06)">
<title>site</title>
<polygon fill="white" stroke="transparent" points="-4,4 -4,-1206.06 1872.9,-1206.06 1872.9,4 -4,4"/>
<!-- www.my.avemaria.edu -->
<g id="node1" class="node">
<title>www.my.avemaria.edu</title>
<ellipse fill="none" stroke="black" cx="1018.88" cy="-621.85" rx="114.28" ry="18"/>
<text text-anchor="middle" x="1018.88" y="-618.15" font-family="Times,serif" font-size="14.00">www.my.avemaria.edu</text>
</g>
<!-- clubs -->
<g id="node2" class="node">
<title>clubs</title>
<ellipse fill="none" stroke="black" cx="556.11" cy="-386.19" rx="35.19" ry="18"/>
<text text-anchor="middle" x="556.11" y="-382.49" font-family="Times,serif" font-size="14.00">clubs</text>
</g>
<!-- www.my.avemaria.edu&#45;&gt;clubs -->
<g id="edge1" class="edge">
<title>www.my.avemaria.edu&#45;&gt;clubs</title>
<path fill="none" stroke="black" d="M984.85,-604.52C899.24,-560.93 675.68,-447.08 590.11,-403.51"/>
<polygon fill="black" stroke="black" points="591.58,-400.33 581.08,-398.91 588.4,-406.56 591.58,-400.33"/>
</g>
<!-- households -->
<g id="node3" class="node">
<title>households</title>
<ellipse fill="none" stroke="black" cx="1420.55" cy="-297.65" rx="63.09" ry="18"/>
<text text-anchor="middle" x="1420.55" y="-293.95" font-family="Times,serif" font-size="14.00">households</text>
</g>
<!-- www.my.avemaria.edu&#45;&gt;households -->
<g id="edge2" class="edge">
<title>www.my.avemaria.edu&#45;&gt;households</title>
<path fill="none" stroke="black" d="M1041.05,-603.96C1109.12,-549.01 1315.16,-382.71 1391.6,-321.01"/>
<polygon fill="black" stroke="black" points="1393.85,-323.7 1399.43,-314.7 1389.45,-318.25 1393.85,-323.7"/>
</g>
<!-- intramurals -->
<g id="node4" class="node">
<title>intramurals</title>
<ellipse fill="none" stroke="black" cx="1144.32" cy="-967.19" rx="65.79" ry="18"/>
<text text-anchor="middle" x="1144.32" y="-963.49" font-family="Times,serif" font-size="14.00">intramurals</text>
</g>
<!-- www.my.avemaria.edu&#45;&gt;intramurals -->
<g id="edge3" class="edge">
<title>www.my.avemaria.edu&#45;&gt;intramurals</title>
<path fill="none" stroke="black" d="M1025.45,-639.93C1046.02,-696.56 1109.31,-870.79 1134.16,-939.2"/>
<polygon fill="black" stroke="black" points="1130.96,-940.66 1137.67,-948.87 1137.54,-938.28 1130.96,-940.66"/>
</g>
<!-- dining -->
<g id="node5" class="node">
<title>dining</title>
<ellipse fill="none" stroke="black" cx="1013.98" cy="-730.52" rx="40.09" ry="18"/>
<text text-anchor="middle" x="1013.98" y="-726.82" font-family="Times,serif" font-size="14.00">dining</text>
</g>
<!-- www.my.avemaria.edu&#45;&gt;dining -->
<g id="edge4" class="edge">
<title>www.my.avemaria.edu&#45;&gt;dining</title>
<path fill="none" stroke="black" d="M1018.05,-640.28C1017.29,-657.25 1016.14,-682.66 1015.26,-702.2"/>
<polygon fill="black" stroke="black" points="1011.76,-702.21 1014.8,-712.36 1018.75,-702.52 1011.76,-702.21"/>
</g>
<!-- faith&#45;on&#45;campus -->
<g id="node6" class="node">
<title>faith&#45;on&#45;campus</title>
<ellipse fill="none" stroke="black" cx="898.8" cy="-876.96" rx="85.29" ry="18"/>
<text text-anchor="middle" x="898.8" y="-873.26" font-family="Times,serif" font-size="14.00">faith&#45;on&#45;campus</text>
</g>
<!-- www.my.avemaria.edu&#45;&gt;faith&#45;on&#45;campus -->
<g id="edge5" class="edge">
<title>www.my.avemaria.edu&#45;&gt;faith&#45;on&#45;campus</title>
<path fill="none" stroke="black" d="M1010.25,-640.2C989.43,-684.42 936.4,-797.08 911.76,-849.44"/>
<polygon fill="black" stroke="black" points="908.45,-848.24 907.36,-858.78 914.79,-851.22 908.45,-848.24"/>
</g>
<!-- events -->
<g id="node7" class="node">
<title>events</title>
<ellipse fill="none" stroke="black" cx="1070.24" cy="-807.47" rx="41.69" ry="18"/>
<text text-anchor="middle" x="1070.24" y="-803.77" font-family="Times,serif" font-size="14.00">events</text>
</g>
<!-- www.my.avemaria.edu&#45;&gt;events -->
<g id="edge6" class="edge">
<title>www.my.avemaria.edu&#45;&gt;events</title>
<path fill="none" stroke="black" d="M1023.9,-639.99C1032.9,-672.51 1051.83,-740.93 1062.5,-779.5"/>
<polygon fill="black" stroke="black" points="1059.24,-780.83 1065.28,-789.53 1065.98,-778.96 1059.24,-780.83"/>
</g>
<!-- give&#45;your&#45;feedback -->
<g id="node8" class="node">
<title>give&#45;your&#45;feedback</title>
<ellipse fill="none" stroke="black" cx="866.81" cy="-721.31" rx="98.58" ry="18"/>
<text text-anchor="middle" x="866.81" y="-717.61" font-family="Times,serif" font-size="14.00">give&#45;your&#45;feedback</text>
</g>
<!-- www.my.avemaria.edu&#45;&gt;give&#45;your&#45;feedback -->
<g id="edge7" class="edge">
<title>www.my.avemaria.edu&#45;&gt;give&#45;your&#45;feedback</title>
<path fill="none" stroke="black" d="M992.04,-639.4C966.96,-655.81 929.36,-680.4 901.91,-698.35"/>
<polygon fill="black" stroke="black" points="899.83,-695.53 893.38,-703.93 903.67,-701.39 899.83,-695.53"/>
</g>
<!-- submit&#45;to&#45;my&#45;avemaria -->
<g id="node9" class="node">
<title>submit&#45;to&#45;my&#45;avemaria</title>
<ellipse fill="none" stroke="black" cx="793.87" cy="-812.39" rx="118.08" ry="18"/>
<text text-anchor="middle" x="793.87" y="-808.69" font-family="Times,serif" font-size="14.00">submit&#45;to&#45;my&#45;avemaria</text>
</g>
<!-- www.my.avemaria.edu&#45;&gt;submit&#45;to&#45;my&#45;avemaria -->
<g id="edge8" class="edge">
<title>www.my.avemaria.edu&#45;&gt;submit&#45;to&#45;my&#45;avemaria</title>
<path fill="none" stroke="black" d="M997.71,-639.78C957.15,-674.12 868.45,-749.23 822.59,-788.06"/>
<polygon fill="black" stroke="black" points="820.19,-785.51 814.82,-794.65 824.71,-790.86 820.19,-785.51"/>
</g>
<!-- flannery&#45;oconnor&#45;literature&#45;club -->
<g id="node10" class="node">
<title>flannery&#45;oconnor&#45;literature&#45;club</title>
<ellipse fill="none" stroke="black" cx="877.75" cy="-477.77" rx="159.47" ry="18"/>
<text text-anchor="middle" x="877.75" y="-474.07" font-family="Times,serif" font-size="14.00">flannery&#45;oconnor&#45;literature&#45;club</text>
</g>
<!-- clubs&#45;&gt;flannery&#45;oconnor&#45;literature&#45;club -->
<g id="edge9" class="edge">
<title>clubs&#45;&gt;flannery&#45;oconnor&#45;literature&#45;club</title>
<path fill="none" stroke="black" d="M586.95,-394.97C637.75,-409.44 740.25,-438.62 808.96,-458.19"/>
<polygon fill="black" stroke="black" points="808.27,-461.63 818.84,-461 810.18,-454.9 808.27,-461.63"/>
</g>
<!-- ave&#45;jazz -->
<g id="node11" class="node">
<title>ave&#45;jazz</title>
<ellipse fill="none" stroke="black" cx="661.36" cy="-492.11" rx="48.19" ry="18"/>
<text text-anchor="middle" x="661.36" y="-488.41" font-family="Times,serif" font-size="14.00">ave&#45;jazz</text>
</g>
<!-- clubs&#45;&gt;ave&#45;jazz -->
<g id="edge10" class="edge">
<title>clubs&#45;&gt;ave&#45;jazz</title>
<path fill="none" stroke="black" d="M572.09,-402.28C589.43,-419.73 617.3,-447.77 637.29,-467.89"/>
<polygon fill="black" stroke="black" points="635,-470.54 644.53,-475.17 639.96,-465.61 635,-470.54"/>
</g>
<!-- swing&#45;dance&#45;club -->
<g id="node12" class="node">
<title>swing&#45;dance&#45;club</title>
<ellipse fill="none" stroke="black" cx="706.3" cy="-599.66" rx="90.98" ry="18"/>
<text text-anchor="middle" x="706.3" y="-595.96" font-family="Times,serif" font-size="14.00">swing&#45;dance&#45;club</text>
</g>
<!-- clubs&#45;&gt;swing&#45;dance&#45;club -->
<g id="edge11" class="edge">
<title>clubs&#45;&gt;swing&#45;dance&#45;club</title>
<path fill="none" stroke="black" d="M568.14,-403.3C594.31,-440.49 656.53,-528.93 687.76,-573.31"/>
<polygon fill="black" stroke="black" points="684.95,-575.4 693.57,-581.57 690.68,-571.37 684.95,-575.4"/>
</g>
<!-- drama&#45;club -->
<g id="node13" class="node">
<title>drama&#45;club</title>
<ellipse fill="none" stroke="black" cx="595.51" cy="-643.77" rx="63.09" ry="18"/>
<text text-anchor="middle" x="595.51" y="-640.07" font-family="Times,serif" font-size="14.00">drama&#45;club</text>
</g>
<!-- clubs&#45;&gt;drama&#45;club -->
<g id="edge12" class="edge">
<title>clubs&#45;&gt;drama&#45;club</title>
<path fill="none" stroke="black" d="M558.88,-404.3C565.65,-448.55 583.06,-562.39 591.2,-615.59"/>
<polygon fill="black" stroke="black" points="587.77,-616.32 592.75,-625.68 594.69,-615.26 587.77,-616.32"/>
</g>
<!-- chess&#45;club -->
<g id="node14" class="node">
<title>chess&#45;club</title>
<ellipse fill="none" stroke="black" cx="227.65" cy="-535.68" rx="59.29" ry="18"/>
<text text-anchor="middle" x="227.65" y="-531.98" font-family="Times,serif" font-size="14.00">chess&#45;club</text>
</g>
<!-- clubs&#45;&gt;chess&#45;club -->
<g id="edge13" class="edge">
<title>clubs&#45;&gt;chess&#45;club</title>
<path fill="none" stroke="black" d="M529.78,-398.17C473.01,-424.01 338.63,-485.17 269.83,-516.48"/>
<polygon fill="black" stroke="black" points="268.23,-513.37 260.58,-520.69 271.13,-519.74 268.23,-513.37"/>
</g>
<!-- equestrian -->
<g id="node15" class="node">
<title>equestrian</title>
<ellipse fill="none" stroke="black" cx="275.65" cy="-640.62" rx="60.39" ry="18"/>
<text text-anchor="middle" x="275.65" y="-636.92" font-family="Times,serif" font-size="14.00">equestrian</text>
</g>
<!-- clubs&#45;&gt;equestrian -->
<g id="edge14" class="edge">
<title>clubs&#45;&gt;equestrian</title>
<path fill="none" stroke="black" d="M538.56,-402.11C490.92,-445.33 358.9,-565.1 302.15,-616.59"/>
<polygon fill="black" stroke="black" points="299.71,-614.07 294.65,-623.38 304.41,-619.26 299.71,-614.07"/>
</g>
<!-- model&#45;united&#45;nations -->
<g id="node16" class="node">
<title>model&#45;united&#45;nations</title>
<ellipse fill="none" stroke="black" cx="495.06" cy="-687.79" rx="108.58" ry="18"/>
<text text-anchor="middle" x="495.06" y="-684.09" font-family="Times,serif" font-size="14.00">model&#45;united&#45;nations</text>
</g>
<!-- clubs&#45;&gt;model&#45;united&#45;nations -->
<g id="edge15" class="edge">
<title>clubs&#45;&gt;model&#45;united&#45;nations</title>
<path fill="none" stroke="black" d="M552.47,-404.15C542.25,-454.64 513.22,-598.09 500.8,-659.42"/>
<polygon fill="black" stroke="black" points="497.31,-659.04 498.76,-669.54 504.17,-660.43 497.31,-659.04"/>
</g>
<!-- biochemistry&#45;club -->
<g id="node17" class="node">
<title>biochemistry&#45;club</title>
<ellipse fill="none" stroke="black" cx="439.54" cy="-599.72" rx="93.68" ry="18"/>
<text text-anchor="middle" x="439.54" y="-596.02" font-family="Times,serif" font-size="14.00">biochemistry&#45;club</text>
</g>
<!-- clubs&#45;&gt;biochemistry&#45;club -->
<g id="edge16" class="edge">
<title>clubs&#45;&gt;biochemistry&#45;club</title>
<path fill="none" stroke="black" d="M546.57,-403.67C526.21,-440.95 478.41,-528.53 454.17,-572.92"/>
<polygon fill="black" stroke="black" points="451.1,-571.25 449.38,-581.7 457.24,-574.6 451.1,-571.25"/>
</g>
<!-- saint&#45;elizabeth&#45;ann&#45;seton&#45;waltzing&#45;club -->
<g id="node18" class="node">
<title>saint&#45;elizabeth&#45;ann&#45;seton&#45;waltzing&#45;club</title>
<ellipse fill="none" stroke="black" cx="322.59" cy="-46.87" rx="192.27" ry="18"/>
<text text-anchor="middle" x="322.59" y="-43.17" font-family="Times,serif" font-size="14.00">saint&#45;elizabeth&#45;ann&#45;seton&#45;waltzing&#45;club</text>
</g>
<!-- clubs&#45;&gt;saint&#45;elizabeth&#45;ann&#45;seton&#45;waltzing&#45;club -->
<g id="edge17" class="edge">
<title>clubs&#45;&gt;saint&#45;elizabeth&#45;ann&#45;seton&#45;waltzing&#45;club</title>
<path fill="none" stroke="black" d="M544.21,-368.9C506.05,-313.45 386.59,-139.86 340.75,-73.25"/>
<polygon fill="black" stroke="black" points="343.59,-71.2 335.03,-64.95 337.82,-75.17 343.59,-71.2"/>
</g>
<!-- the&#45;ave&#45;maria&#45;university&#45;acm&#45;chapter&#45;computer&#45;science&#45;club -->
<g id="node19" class="node">
<title>the&#45;ave&#45;maria&#45;university&#45;acm&#45;chapter&#45;computer&#45;science&#45;club</title>
<ellipse fill="none" stroke="black" cx="291.82" cy="-128.39" rx="291.65" ry="18"/>
<text text-anchor="middle" x="291.82" y="-124.69" font-family="Times,serif" font-size="14.00">the&#45;ave&#45;maria&#45;university&#45;acm&#45;chapter&#45;computer&#45;science&#45;club</text>
</g>
<!-- clubs&#45;&gt;the&#45;ave&#45;maria&#45;university&#45;acm&#45;chapter&#45;computer&#45;science&#45;club -->
<g id="edge18" class="edge">
<title>clubs&#45;&gt;the&#45;ave&#45;maria&#45;university&#45;acm&#45;chapter&#45;computer&#45;science&#45;club</title>
<path fill="none" stroke="black" d="M539.58,-370.06C494.99,-326.57 371.97,-206.57 317.9,-153.83"/>
<polygon fill="black" stroke="black" points="320.04,-151.03 310.44,-146.55 315.15,-156.04 320.04,-151.03"/>
</g>
<!-- ave&#45;for&#45;life -->
<g id="node20" class="node">
<title>ave&#45;for&#45;life</title>
<ellipse fill="none" stroke="black" cx="449.52" cy="-190.77" rx="60.39" ry="18"/>
<text text-anchor="middle" x="449.52" y="-187.07" font-family="Times,serif" font-size="14.00">ave&#45;for&#45;life</text>
</g>
<!-- clubs&#45;&gt;ave&#45;for&#45;life -->
<g id="edge19" class="edge">
<title>clubs&#45;&gt;ave&#45;for&#45;life</title>
<path fill="none" stroke="black" d="M546.65,-368.85C527.98,-334.62 486.28,-258.16 464.08,-217.46"/>
<polygon fill="black" stroke="black" points="467.12,-215.74 459.26,-208.64 460.98,-219.1 467.12,-215.74"/>
</g>
<!-- nursing&#45;club -->
<g id="node21" class="node">
<title>nursing&#45;club</title>
<ellipse fill="none" stroke="black" cx="626.97" cy="-84.29" rx="68.79" ry="18"/>
<text text-anchor="middle" x="626.97" y="-80.59" font-family="Times,serif" font-size="14.00">nursing&#45;club</text>
</g>
<!-- clubs&#45;&gt;nursing&#45;club -->
<g id="edge20" class="edge">
<title>clubs&#45;&gt;nursing&#45;club</title>
<path fill="none" stroke="black" d="M560.33,-368.21C572.21,-317.57 606.03,-173.48 620.39,-112.3"/>
<polygon fill="black" stroke="black" points="623.8,-113.09 622.68,-102.55 616.99,-111.49 623.8,-113.09"/>
</g>
<!-- camerata&#45;di&#45;ave&#45;maria -->
<g id="node22" class="node">
<title>camerata&#45;di&#45;ave&#45;maria</title>
<ellipse fill="none" stroke="black" cx="227.63" cy="-431.28" rx="114.28" ry="18"/>
<text text-anchor="middle" x="227.63" y="-427.58" font-family="Times,serif" font-size="14.00">camerata&#45;di&#45;ave&#45;maria</text>
</g>
<!-- clubs&#45;&gt;camerata&#45;di&#45;ave&#45;maria -->
<g id="edge21" class="edge">
<title>clubs&#45;&gt;camerata&#45;di&#45;ave&#45;maria</title>
<path fill="none" stroke="black" d="M522.19,-390.85C475.89,-397.2 391.01,-408.85 324.22,-418.02"/>
<polygon fill="black" stroke="black" points="323.51,-414.59 314.08,-419.41 324.46,-421.52 323.51,-414.59"/>
</g>
<!-- thomistic&#45;institute&#45;chapter -->
<g id="node23" class="node">
<title>thomistic&#45;institute&#45;chapter</title>
<ellipse fill="none" stroke="black" cx="153.38" cy="-353.38" rx="135.38" ry="18"/>
<text text-anchor="middle" x="153.38" y="-349.68" font-family="Times,serif" font-size="14.00">thomistic&#45;institute&#45;chapter</text>
</g>
<!-- clubs&#45;&gt;thomistic&#45;institute&#45;chapter -->
<g id="edge22" class="edge">
<title>clubs&#45;&gt;thomistic&#45;institute&#45;chapter</title>
<path fill="none" stroke="black" d="M521.42,-383.37C468.07,-379.02 363.21,-370.47 279.02,-363.61"/>
<polygon fill="black" stroke="black" points="279.11,-360.11 268.86,-362.79 278.55,-367.09 279.11,-360.11"/>
</g>
<!-- snorkel&#45;and&#45;scuba&#45;club -->
<g id="node24" class="node">
<title>snorkel&#45;and&#45;scuba&#45;club</title>
<ellipse fill="none" stroke="black" cx="174.36" cy="-279.9" rx="116.98" ry="18"/>
<text text-anchor="middle" x="174.36" y="-276.2" font-family="Times,serif" font-size="14.00">snorkel&#45;and&#45;scuba&#45;club</text>
</g>
<!-- clubs&#45;&gt;snorkel&#45;and&#45;scuba&#45;club -->
<g id="edge23" class="edge">
<title>clubs&#45;&gt;snorkel&#45;and&#45;scuba&#45;club</title>
<path fill="none" stroke="black" d="M525.19,-377.58C463.62,-360.44 324.43,-321.68 241.07,-298.47"/>
<polygon fill="black" stroke="black" points="241.76,-295.03 231.19,-295.72 239.88,-301.78 241.76,-295.03"/>
</g>
<!-- future&#45;teachers&#45;club -->
<g id="node25" class="node">
<title>future&#45;teachers&#45;club</title>
<ellipse fill="none" stroke="black" cx="299.22" cy="-235.88" rx="104.78" ry="18"/>
<text text-anchor="middle" x="299.22" y="-232.18" font-family="Times,serif" font-size="14.00">future&#45;teachers&#45;club</text>
</g>
<!-- clubs&#45;&gt;future&#45;teachers&#45;club -->
<g id="edge24" class="edge">
<title>clubs&#45;&gt;future&#45;teachers&#45;club</title>
<path fill="none" stroke="black" d="M532.86,-372.59C488.61,-346.7 391.89,-290.1 337.8,-258.45"/>
<polygon fill="black" stroke="black" points="339.25,-255.25 328.85,-253.22 335.72,-261.29 339.25,-255.25"/>
</g>
<!-- wojtyla&#45;society&#45;psychology&#45;club -->
<g id="node26" class="node">
<title>wojtyla&#45;society&#45;psychology&#45;club</title>
<ellipse fill="none" stroke="black" cx="551.3" cy="-280.57" rx="157.07" ry="18"/>
<text text-anchor="middle" x="551.3" y="-276.87" font-family="Times,serif" font-size="14.00">wojtyla&#45;society&#45;psychology&#45;club</text>
</g>
<!-- clubs&#45;&gt;wojtyla&#45;society&#45;psychology&#45;club -->
<g id="edge25" class="edge">
<title>clubs&#45;&gt;wojtyla&#45;society&#45;psychology&#45;club</title>
<path fill="none" stroke="black" d="M555.27,-367.79C554.53,-351.51 553.44,-327.5 552.59,-308.79"/>
<polygon fill="black" stroke="black" points="556.08,-308.59 552.13,-298.76 549.09,-308.91 556.08,-308.59"/>
</g>
<!-- pre&#45;health&#45;club -->
<g id="node27" class="node">
<title>pre&#45;health&#45;club</title>
<ellipse fill="none" stroke="black" cx="394.77" cy="-377.67" rx="81.49" ry="18"/>
<text text-anchor="middle" x="394.77" y="-373.97" font-family="Times,serif" font-size="14.00">pre&#45;health&#45;club</text>
</g>
<!-- clubs&#45;&gt;pre&#45;health&#45;club -->
<g id="edge26" class="edge">
<title>clubs&#45;&gt;pre&#45;health&#45;club</title>
<path fill="none" stroke="black" d="M521.1,-384.34C510.02,-383.76 497.23,-383.08 484.13,-382.39"/>
<polygon fill="black" stroke="black" points="484.25,-378.89 474.08,-381.86 483.88,-385.88 484.25,-378.89"/>
</g>
<!-- ave&#45;maria&#45;best&#45;buddies -->
<g id="node28" class="node">
<title>ave&#45;maria&#45;best&#45;buddies</title>
<ellipse fill="none" stroke="black" cx="552.7" cy="-538.65" rx="118.88" ry="18"/>
<text text-anchor="middle" x="552.7" y="-534.95" font-family="Times,serif" font-size="14.00">ave&#45;maria&#45;best&#45;buddies</text>
</g>
<!-- clubs&#45;&gt;ave&#45;maria&#45;best&#45;buddies -->
<g id="edge27" class="edge">
<title>clubs&#45;&gt;ave&#45;maria&#45;best&#45;buddies</title>
<path fill="none" stroke="black" d="M555.7,-404.28C555.12,-430.53 554.03,-479.42 553.33,-510.43"/>
<polygon fill="black" stroke="black" points="549.83,-510.51 553.11,-520.59 556.83,-510.67 549.83,-510.51"/>
</g>
<!-- turning&#45;point&#45;usa -->
<g id="node29" class="node">
<title>turning&#45;point&#45;usa</title>
<ellipse fill="none" stroke="black" cx="392.66" cy="-494.62" rx="90.98" ry="18"/>
<text text-anchor="middle" x="392.66" y="-490.92" font-family="Times,serif" font-size="14.00">turning&#45;point&#45;usa</text>
</g>
<!-- clubs&#45;&gt;turning&#45;point&#45;usa -->
<g id="edge28" class="edge">
<title>clubs&#45;&gt;turning&#45;point&#45;usa</title>
<path fill="none" stroke="black" d="M534.4,-400.59C507.1,-418.7 459.87,-450.03 427.49,-471.51"/>
<polygon fill="black" stroke="black" points="425.17,-468.85 418.78,-477.29 429.04,-474.68 425.17,-468.85"/>
</g>
<!-- keepers&#45;of&#45;his&#45;house -->
<g id="node30" class="node">
<title>keepers&#45;of&#45;his&#45;house</title>
<ellipse fill="none" stroke="black" cx="712.31" cy="-397.78" rx="105.88" ry="18"/>
<text text-anchor="middle" x="712.31" y="-394.08" font-family="Times,serif" font-size="14.00">keepers&#45;of&#45;his&#45;house</text>
</g>
<!-- clubs&#45;&gt;keepers&#45;of&#45;his&#45;house -->
<g id="edge29" class="edge">
<title>clubs&#45;&gt;keepers&#45;of&#45;his&#45;house</title>
<path fill="none" stroke="black" d="M591.16,-388.79C595.54,-389.12 600.18,-389.46 605,-389.82"/>
<polygon fill="black" stroke="black" points="604.86,-393.32 615.1,-390.57 605.38,-386.34 604.86,-393.32"/>
</g>
<!-- young&#45;americans&#45;for&#45;freedom -->
<g id="node31" class="node">
<title>young&#45;americans&#45;for&#45;freedom</title>
<ellipse fill="none" stroke="black" cx="810.26" cy="-177.03" rx="147.57" ry="18"/>
<text text-anchor="middle" x="810.26" y="-173.33" font-family="Times,serif" font-size="14.00">young&#45;americans&#45;for&#45;freedom</text>
</g>
<!-- clubs&#45;&gt;young&#45;americans&#45;for&#45;freedom -->
<g id="edge30" class="edge">
<title>clubs&#45;&gt;young&#45;americans&#45;for&#45;freedom</title>
<path fill="none" stroke="black" d="M574.8,-370.81C618.43,-334.9 727.33,-245.28 780.33,-201.66"/>
<polygon fill="black" stroke="black" points="782.84,-204.13 788.34,-195.07 778.4,-198.72 782.84,-204.13"/>
</g>
<!-- campus&#45;care -->
<g id="node32" class="node">
<title>campus&#45;care</title>
<ellipse fill="none" stroke="black" cx="773.48" cy="-120.86" rx="69.59" ry="18"/>
<text text-anchor="middle" x="773.48" y="-117.16" font-family="Times,serif" font-size="14.00">campus&#45;care</text>
</g>
<!-- clubs&#45;&gt;campus&#45;care -->
<g id="edge31" class="edge">
<title>clubs&#45;&gt;campus&#45;care</title>
<path fill="none" stroke="black" d="M569.71,-369.59C606.5,-324.69 708.19,-200.55 752.45,-146.53"/>
<polygon fill="black" stroke="black" points="755.41,-148.44 759.04,-138.49 749.99,-144 755.41,-148.44"/>
</g>
<!-- women&#45;in&#45;business&#45;club -->
<g id="node33" class="node">
<title>women&#45;in&#45;business&#45;club</title>
<ellipse fill="none" stroke="black" cx="690.73" cy="-221.06" rx="121.58" ry="18"/>
<text text-anchor="middle" x="690.73" y="-217.36" font-family="Times,serif" font-size="14.00">women&#45;in&#45;business&#45;club</text>
</g>
<!-- clubs&#45;&gt;women&#45;in&#45;business&#45;club -->
<g id="edge32" class="edge">
<title>clubs&#45;&gt;women&#45;in&#45;business&#45;club</title>
<path fill="none" stroke="black" d="M569.76,-369.45C593.23,-340.65 641.43,-281.53 669.38,-247.24"/>
<polygon fill="black" stroke="black" points="672.42,-249.06 676.02,-239.1 666.99,-244.64 672.42,-249.06"/>
</g>
<!-- life&#45;runners -->
<g id="node34" class="node">
<title>life&#45;runners</title>
<ellipse fill="none" stroke="black" cx="895.53" cy="-356.42" rx="64.99" ry="18"/>
<text text-anchor="middle" x="895.53" y="-352.72" font-family="Times,serif" font-size="14.00">life&#45;runners</text>
</g>
<!-- clubs&#45;&gt;life&#45;runners -->
<g id="edge33" class="edge">
<title>clubs&#45;&gt;life&#45;runners</title>
<path fill="none" stroke="black" d="M590.84,-383.15C645.19,-378.38 751.52,-369.05 823.06,-362.78"/>
<polygon fill="black" stroke="black" points="823.69,-366.24 833.35,-361.88 823.08,-359.26 823.69,-366.24"/>
</g>
<!-- art&#45;film&#45;club -->
<g id="node35" class="node">
<title>art&#45;film&#45;club</title>
<ellipse fill="none" stroke="black" cx="890.42" cy="-235.73" rx="67.69" ry="18"/>
<text text-anchor="middle" x="890.42" y="-232.03" font-family="Times,serif" font-size="14.00">art&#45;film&#45;club</text>
</g>
<!-- clubs&#45;&gt;art&#45;film&#45;club -->
<g id="edge34" class="edge">
<title>clubs&#45;&gt;art&#45;film&#45;club</title>
<path fill="none" stroke="black" d="M582.62,-374.26C639.92,-348.47 775.82,-287.31 846.31,-255.59"/>
<polygon fill="black" stroke="black" points="848.12,-258.61 855.8,-251.31 845.25,-252.22 848.12,-258.61"/>
</g>
<!-- philosophy&#45;club -->
<g id="node36" class="node">
<title>philosophy&#45;club</title>
<ellipse fill="none" stroke="black" cx="811.98" cy="-300.3" rx="83.39" ry="18"/>
<text text-anchor="middle" x="811.98" y="-296.6" font-family="Times,serif" font-size="14.00">philosophy&#45;club</text>
</g>
<!-- clubs&#45;&gt;philosophy&#45;club -->
<g id="edge35" class="edge">
<title>clubs&#45;&gt;philosophy&#45;club</title>
<path fill="none" stroke="black" d="M585.71,-376.25C627.57,-362.2 704.79,-336.28 757.25,-318.67"/>
<polygon fill="black" stroke="black" points="758.38,-321.99 766.75,-315.48 756.15,-315.35 758.38,-321.99"/>
</g>
<!-- the&#45;lions&#45;of&#45;judah -->
<g id="node43" class="node">
<title>the&#45;lions&#45;of&#45;judah</title>
<ellipse fill="none" stroke="black" cx="1462.06" cy="-422.25" rx="90.98" ry="18"/>
<text text-anchor="middle" x="1462.06" y="-418.55" font-family="Times,serif" font-size="14.00">the&#45;lions&#45;of&#45;judah</text>
</g>
<!-- households&#45;&gt;the&#45;lions&#45;of&#45;judah -->
<g id="edge42" class="edge">
<title>households&#45;&gt;the&#45;lions&#45;of&#45;judah</title>
<path fill="none" stroke="black" d="M1426.59,-315.77C1433.47,-336.44 1444.82,-370.48 1452.82,-394.5"/>
<polygon fill="black" stroke="black" points="1449.54,-395.73 1456.02,-404.11 1456.18,-393.52 1449.54,-395.73"/>
</g>
<!-- verso&#45;il&#45;cielo -->
<g id="node44" class="node">
<title>verso&#45;il&#45;cielo</title>
<ellipse fill="none" stroke="black" cx="1298.34" cy="-466.27" rx="69.59" ry="18"/>
<text text-anchor="middle" x="1298.34" y="-462.57" font-family="Times,serif" font-size="14.00">verso&#45;il&#45;cielo</text>
</g>
<!-- households&#45;&gt;verso&#45;il&#45;cielo -->
<g id="edge43" class="edge">
<title>households&#45;&gt;verso&#45;il&#45;cielo</title>
<path fill="none" stroke="black" d="M1407.7,-315.37C1386.07,-345.23 1342.26,-405.66 1317.16,-440.31"/>
<polygon fill="black" stroke="black" points="1314.24,-438.37 1311.2,-448.52 1319.9,-442.48 1314.24,-438.37"/>
</g>
<!-- immaculata&#45;vincet -->
<g id="node45" class="node">
<title>immaculata&#45;vincet</title>
<ellipse fill="none" stroke="black" cx="1605.98" cy="-520.16" rx="96.38" ry="18"/>
<text text-anchor="middle" x="1605.98" y="-516.46" font-family="Times,serif" font-size="14.00">immaculata&#45;vincet</text>
</g>
<!-- households&#45;&gt;immaculata&#45;vincet -->
<g id="edge44" class="edge">
<title>households&#45;&gt;immaculata&#45;vincet</title>
<path fill="none" stroke="black" d="M1435.41,-315.48C1468.1,-354.7 1546.34,-448.6 1584.43,-494.3"/>
<polygon fill="black" stroke="black" points="1581.96,-496.8 1591.05,-502.24 1587.34,-492.32 1581.96,-496.8"/>
</g>
<!-- rosa&#45;mystica -->
<g id="node46" class="node">
<title>rosa&#45;mystica</title>
<ellipse fill="none" stroke="black" cx="1432.17" cy="-544.68" rx="69.59" ry="18"/>
<text text-anchor="middle" x="1432.17" y="-540.98" font-family="Times,serif" font-size="14.00">rosa&#45;mystica</text>
</g>
<!-- households&#45;&gt;rosa&#45;mystica -->
<g id="edge45" class="edge">
<title>households&#45;&gt;rosa&#45;mystica</title>
<path fill="none" stroke="black" d="M1421.41,-315.81C1423.41,-358.46 1428.43,-465.26 1430.84,-516.45"/>
<polygon fill="black" stroke="black" points="1427.35,-516.67 1431.31,-526.49 1434.34,-516.34 1427.35,-516.67"/>
</g>
<!-- filii&#45;in&#45;filio -->
<g id="node47" class="node">
<title>filii&#45;in&#45;filio</title>
<ellipse fill="none" stroke="black" cx="1406.87" cy="-162.34" rx="57.69" ry="18"/>
<text text-anchor="middle" x="1406.87" y="-158.64" font-family="Times,serif" font-size="14.00">filii&#45;in&#45;filio</text>
</g>
<!-- households&#45;&gt;filii&#45;in&#45;filio -->
<g id="edge46" class="edge">
<title>households&#45;&gt;filii&#45;in&#45;filio</title>
<path fill="none" stroke="black" d="M1418.71,-279.4C1416.41,-256.7 1412.47,-217.69 1409.77,-190.99"/>
<polygon fill="black" stroke="black" points="1413.22,-190.33 1408.73,-180.73 1406.25,-191.03 1413.22,-190.33"/>
</g>
<!-- sisterhood&#45;of&#45;mary&#45;magdalene -->
<g id="node48" class="node">
<title>sisterhood&#45;of&#45;mary&#45;magdalene</title>
<ellipse fill="none" stroke="black" cx="1717.47" cy="-373.8" rx="151.37" ry="18"/>
<text text-anchor="middle" x="1717.47" y="-370.1" font-family="Times,serif" font-size="14.00">sisterhood&#45;of&#45;mary&#45;magdalene</text>
</g>
<!-- households&#45;&gt;sisterhood&#45;of&#45;mary&#45;magdalene -->
<g id="edge47" class="edge">
<title>households&#45;&gt;sisterhood&#45;of&#45;mary&#45;magdalene</title>
<path fill="none" stroke="black" d="M1467.6,-309.71C1514.96,-321.86 1588.69,-340.77 1643.8,-354.9"/>
<polygon fill="black" stroke="black" points="1642.96,-358.3 1653.52,-357.4 1644.7,-351.52 1642.96,-358.3"/>
</g>
<!-- asteria&#45;tis&#45;marias -->
<g id="node49" class="node">
<title>asteria&#45;tis&#45;marias</title>
<ellipse fill="none" stroke="black" cx="1679.37" cy="-459.82" rx="92.08" ry="18"/>
<text text-anchor="middle" x="1679.37" y="-456.12" font-family="Times,serif" font-size="14.00">asteria&#45;tis&#45;marias</text>
</g>
<!-- households&#45;&gt;asteria&#45;tis&#45;marias -->
<g id="edge48" class="edge">
<title>households&#45;&gt;asteria&#45;tis&#45;marias</title>
<path fill="none" stroke="black" d="M1446.79,-314.09C1493.32,-343.24 1590.35,-404.04 1643.18,-437.14"/>
<polygon fill="black" stroke="black" points="1641.56,-440.25 1651.89,-442.6 1645.28,-434.32 1641.56,-440.25"/>
</g>
<!-- praecursores&#45;verbi -->
<g id="node50" class="node">
<title>praecursores&#45;verbi</title>
<ellipse fill="none" stroke="black" cx="1590.54" cy="-328.53" rx="98.58" ry="18"/>
<text text-anchor="middle" x="1590.54" y="-324.83" font-family="Times,serif" font-size="14.00">praecursores&#45;verbi</text>
</g>
<!-- households&#45;&gt;praecursores&#45;verbi -->
<g id="edge49" class="edge">
<title>households&#45;&gt;praecursores&#45;verbi</title>
<path fill="none" stroke="black" d="M1473.87,-307.34C1485.55,-309.46 1498.16,-311.75 1510.62,-314.01"/>
<polygon fill="black" stroke="black" points="1510.1,-317.48 1520.56,-315.82 1511.35,-310.59 1510.1,-317.48"/>
</g>
<!-- talitha&#45;koum -->
<g id="node51" class="node">
<title>talitha&#45;koum</title>
<ellipse fill="none" stroke="black" cx="1597.16" cy="-42.28" rx="69.59" ry="18"/>
<text text-anchor="middle" x="1597.16" y="-38.58" font-family="Times,serif" font-size="14.00">talitha&#45;koum</text>
</g>
<!-- households&#45;&gt;talitha&#45;koum -->
<g id="edge50" class="edge">
<title>households&#45;&gt;talitha&#45;koum</title>
<path fill="none" stroke="black" d="M1432.97,-279.69C1463.62,-235.37 1542.99,-120.59 1578.96,-68.58"/>
<polygon fill="black" stroke="black" points="1581.94,-70.43 1584.75,-60.21 1576.18,-66.45 1581.94,-70.43"/>
</g>
<!-- vessels&#45;of&#45;mercy -->
<g id="node52" class="node">
<title>vessels&#45;of&#45;mercy</title>
<ellipse fill="none" stroke="black" cx="1684.8" cy="-123.47" rx="87.99" ry="18"/>
<text text-anchor="middle" x="1684.8" y="-119.77" font-family="Times,serif" font-size="14.00">vessels&#45;of&#45;mercy</text>
</g>
<!-- households&#45;&gt;vessels&#45;of&#45;mercy -->
<g id="edge51" class="edge">
<title>households&#45;&gt;vessels&#45;of&#45;mercy</title>
<path fill="none" stroke="black" d="M1445.89,-280.95C1493.37,-249.65 1595.79,-182.14 1649.81,-146.53"/>
<polygon fill="black" stroke="black" points="1651.94,-149.32 1658.37,-140.89 1648.09,-143.48 1651.94,-149.32"/>
</g>
<!-- ardens&#45;virtus -->
<g id="node53" class="node">
<title>ardens&#45;virtus</title>
<ellipse fill="none" stroke="black" cx="1608.26" cy="-200.22" rx="72.59" ry="18"/>
<text text-anchor="middle" x="1608.26" y="-196.52" font-family="Times,serif" font-size="14.00">ardens&#45;virtus</text>
</g>
<!-- households&#45;&gt;ardens&#45;virtus -->
<g id="edge52" class="edge">
<title>households&#45;&gt;ardens&#45;virtus</title>
<path fill="none" stroke="black" d="M1451.13,-281.78C1482.88,-265.3 1532.73,-239.42 1567.75,-221.25"/>
<polygon fill="black" stroke="black" points="1569.49,-224.29 1576.76,-216.57 1566.27,-218.07 1569.49,-224.29"/>
</g>
<!-- daughters&#45;of&#45;god -->
<g id="node54" class="node">
<title>daughters&#45;of&#45;god</title>
<ellipse fill="none" stroke="black" cx="1719.41" cy="-254.06" rx="89.88" ry="18"/>
<text text-anchor="middle" x="1719.41" y="-250.36" font-family="Times,serif" font-size="14.00">daughters&#45;of&#45;god</text>
</g>
<!-- households&#45;&gt;daughters&#45;of&#45;god -->
<g id="edge53" class="edge">
<title>households&#45;&gt;daughters&#45;of&#45;god</title>
<path fill="none" stroke="black" d="M1476.76,-289.45C1521.86,-282.87 1585.82,-273.54 1636.75,-266.12"/>
<polygon fill="black" stroke="black" points="1637.36,-269.56 1646.75,-264.66 1636.35,-262.64 1637.36,-269.56"/>
</g>
<!-- stella&#45;maris -->
<g id="node55" class="node">
<title>stella&#45;maris</title>
<ellipse fill="none" stroke="black" cx="1255.59" cy="-201.03" rx="65.79" ry="18"/>
<text text-anchor="middle" x="1255.59" y="-197.33" font-family="Times,serif" font-size="14.00">stella&#45;maris</text>
</g>
<!-- households&#45;&gt;stella&#45;maris -->
<g id="edge54" class="edge">
<title>households&#45;&gt;stella&#45;maris</title>
<path fill="none" stroke="black" d="M1392.57,-281.26C1364.99,-265.11 1322.71,-240.34 1292.42,-222.6"/>
<polygon fill="black" stroke="black" points="1293.83,-219.37 1283.43,-217.34 1290.29,-225.41 1293.83,-219.37"/>
</g>
<!-- theotokos -->
<g id="node56" class="node">
<title>theotokos</title>
<ellipse fill="none" stroke="black" cx="1275.53" cy="-316.16" rx="55.79" ry="18"/>
<text text-anchor="middle" x="1275.53" y="-312.46" font-family="Times,serif" font-size="14.00">theotokos</text>
</g>
<!-- households&#45;&gt;theotokos -->
<g id="edge55" class="edge">
<title>households&#45;&gt;theotokos</title>
<path fill="none" stroke="black" d="M1362.82,-305.02C1354.62,-306.06 1346.16,-307.14 1337.88,-308.2"/>
<polygon fill="black" stroke="black" points="1337.37,-304.74 1327.9,-309.47 1338.26,-311.68 1337.37,-304.74"/>
</g>
<!-- alethes&#45;arete -->
<g id="node57" class="node">
<title>alethes&#45;arete</title>
<ellipse fill="none" stroke="black" cx="1504.07" cy="-94.39" rx="71.49" ry="18"/>
<text text-anchor="middle" x="1504.07" y="-90.69" font-family="Times,serif" font-size="14.00">alethes&#45;arete</text>
</g>
<!-- households&#45;&gt;alethes&#45;arete -->
<g id="edge56" class="edge">
<title>households&#45;&gt;alethes&#45;arete</title>
<path fill="none" stroke="black" d="M1427.96,-279.61C1442.64,-243.9 1475.46,-164.02 1492.82,-121.78"/>
<polygon fill="black" stroke="black" points="1496.12,-122.97 1496.68,-112.39 1489.64,-120.31 1496.12,-122.97"/>
</g>
<!-- fishers&#45;of&#45;men -->
<g id="node58" class="node">
<title>fishers&#45;of&#45;men</title>
<ellipse fill="none" stroke="black" cx="1413.19" cy="-18" rx="77.19" ry="18"/>
<text text-anchor="middle" x="1413.19" y="-14.3" font-family="Times,serif" font-size="14.00">fishers&#45;of&#45;men</text>
</g>
<!-- households&#45;&gt;fishers&#45;of&#45;men -->
<g id="edge57" class="edge">
<title>households&#45;&gt;fishers&#45;of&#45;men</title>
<path fill="none" stroke="black" d="M1420.07,-279.3C1418.81,-231.58 1415.44,-103.35 1413.94,-46.18"/>
<polygon fill="black" stroke="black" points="1417.43,-45.96 1413.67,-36.05 1410.43,-46.14 1417.43,-45.96"/>
</g>
<!-- fiat&#45;voluntas&#45;tua -->
<g id="node59" class="node">
<title>fiat&#45;voluntas&#45;tua</title>
<ellipse fill="none" stroke="black" cx="1302.72" cy="-88.01" rx="87.18" ry="18"/>
<text text-anchor="middle" x="1302.72" y="-84.31" font-family="Times,serif" font-size="14.00">fiat&#45;voluntas&#45;tua</text>
</g>
<!-- households&#45;&gt;fiat&#45;voluntas&#45;tua -->
<g id="edge58" class="edge">
<title>households&#45;&gt;fiat&#45;voluntas&#45;tua</title>
<path fill="none" stroke="black" d="M1410.51,-279.77C1389.82,-242.97 1342.35,-158.53 1317.9,-115.02"/>
<polygon fill="black" stroke="black" points="1320.86,-113.14 1312.9,-106.14 1314.75,-116.57 1320.86,-113.14"/>
</g>
<!-- coed&#45;beach&#45;volleyball -->
<g id="node37" class="node">
<title>coed&#45;beach&#45;volleyball</title>
<ellipse fill="none" stroke="black" cx="1074.11" cy="-1059.79" rx="109.68" ry="18"/>
<text text-anchor="middle" x="1074.11" y="-1056.09" font-family="Times,serif" font-size="14.00">coed&#45;beach&#45;volleyball</text>
</g>
<!-- intramurals&#45;&gt;coed&#45;beach&#45;volleyball -->
<g id="edge36" class="edge">
<title>intramurals&#45;&gt;coed&#45;beach&#45;volleyball</title>
<path fill="none" stroke="black" d="M1130.78,-985.04C1120.36,-998.79 1105.8,-1018 1094.05,-1033.5"/>
<polygon fill="black" stroke="black" points="1091.1,-1031.59 1087.85,-1041.68 1096.68,-1035.82 1091.1,-1031.59"/>
</g>
<!-- kickball -->
<g id="node38" class="node">
<title>kickball</title>
<ellipse fill="none" stroke="black" cx="1113.04" cy="-1184.06" rx="46.29" ry="18"/>
<text text-anchor="middle" x="1113.04" y="-1180.36" font-family="Times,serif" font-size="14.00">kickball</text>
</g>
<!-- intramurals&#45;&gt;kickball -->
<g id="edge37" class="edge">
<title>intramurals&#45;&gt;kickball</title>
<path fill="none" stroke="black" d="M1141.71,-985.31C1136.26,-1023.1 1123.64,-1110.58 1117.11,-1155.83"/>
<polygon fill="black" stroke="black" points="1113.63,-1155.45 1115.66,-1165.85 1120.56,-1156.45 1113.63,-1155.45"/>
</g>
<!-- basketball -->
<g id="node39" class="node">
<title>basketball</title>
<ellipse fill="none" stroke="black" cx="970.33" cy="-1121.16" rx="58.49" ry="18"/>
<text text-anchor="middle" x="970.33" y="-1117.46" font-family="Times,serif" font-size="14.00">basketball</text>
</g>
<!-- intramurals&#45;&gt;basketball -->
<g id="edge38" class="edge">
<title>intramurals&#45;&gt;basketball</title>
<path fill="none" stroke="black" d="M1124.7,-984.55C1093.47,-1012.19 1032.39,-1066.24 997.15,-1097.43"/>
<polygon fill="black" stroke="black" points="994.79,-1094.85 989.62,-1104.09 999.43,-1100.09 994.79,-1094.85"/>
</g>
<!-- pickleball -->
<g id="node40" class="node">
<title>pickleball</title>
<ellipse fill="none" stroke="black" cx="1228.03" cy="-1103.8" rx="55.49" ry="18"/>
<text text-anchor="middle" x="1228.03" y="-1100.1" font-family="Times,serif" font-size="14.00">pickleball</text>
</g>
<!-- intramurals&#45;&gt;pickleball -->
<g id="edge39" class="edge">
<title>intramurals&#45;&gt;pickleball</title>
<path fill="none" stroke="black" d="M1155.27,-985.05C1169.68,-1008.57 1195.14,-1050.12 1211.8,-1077.31"/>
<polygon fill="black" stroke="black" points="1208.88,-1079.24 1217.09,-1085.93 1214.84,-1075.58 1208.88,-1079.24"/>
</g>
<!-- flag&#45;football -->
<g id="node41" class="node">
<title>flag&#45;football</title>
<ellipse fill="none" stroke="black" cx="1336.45" cy="-1047.49" rx="66.09" ry="18"/>
<text text-anchor="middle" x="1336.45" y="-1043.79" font-family="Times,serif" font-size="14.00">flag&#45;football</text>
</g>
<!-- intramurals&#45;&gt;flag&#45;football -->
<g id="edge40" class="edge">
<title>intramurals&#45;&gt;flag&#45;football</title>
<path fill="none" stroke="black" d="M1180.46,-982.29C1211.62,-995.32 1256.8,-1014.2 1290.52,-1028.3"/>
<polygon fill="black" stroke="black" points="1289.57,-1031.69 1300.15,-1032.32 1292.27,-1025.23 1289.57,-1031.69"/>
</g>
<!-- soccer -->
<g id="node42" class="node">
<title>soccer</title>
<ellipse fill="none" stroke="black" cx="1346.17" cy="-930.83" rx="40.09" ry="18"/>
<text text-anchor="middle" x="1346.17" y="-927.13" font-family="Times,serif" font-size="14.00">soccer</text>
</g>
<!-- intramurals&#45;&gt;soccer -->
<g id="edge41" class="edge">
<title>intramurals&#45;&gt;soccer</title>
<path fill="none" stroke="black" d="M1199.21,-957.3C1230.23,-951.71 1268.62,-944.8 1298.39,-939.43"/>
<polygon fill="black" stroke="black" points="1299.31,-942.82 1308.53,-937.61 1298.07,-935.93 1299.31,-942.82"/>
</g>
</g>
</svg>
